<svg xmlns="http://www.w3.org/2000/svg" viewBox="0 0 24 32">
  <!-- Tattered Trousers / Pants -->
  <path d="M6 0h12l3 6v14l-3 10l-4-4l-2 2l-2-2l-4 4l-3-10V6z" fill="var(--cloth)"/>
  <!-- Highlight folds -->
  <path d="M6 0h6l-1 6l-3 12l2 8v-10l-3-6z" fill="var(--cloth-light)"/>
  <path d="M7 6l3 2l-1 12l-2-1z" fill="var(--cloth-light)"/>
  <!-- Shadow folds -->
  <path d="M12 0h6l1 6l3 12l-2 8v-10l3-6z" fill="var(--cloth-shadow)"/>
  <path d="M14 6l-1 12l3 2l1-14z" fill="var(--cloth-shadow)"/>
  
  <!-- Rips and Patches -->
  <rect x="7" y="14" width="3" height="3" fill="var(--cloth-shadow)"/>
  <rect x="8" y="15" width="1.5" height="1.5" fill="var(--cloth-light)"/>
  <rect x="14" y="18" width="3" height="3" fill="var(--cloth-shadow)"/>
  <rect x="15" y="19" width="1.5" height="1.5" fill="var(--cloth-light)"/>
</svg>
