<svg xmlns="http://www.w3.org/2000/svg" viewBox="0 0 24 24">
  <polygon points="7,13 7,11 9,9 15,9 17,11 17,13" fill="var(--armor)"/>
  <polygon points="8,11 10,9 13,9 11,12 8,12" fill="var(--armor-light)"/>
  <rect x="6" y="13" width="12" height="3" fill="var(--armor)"/>
  <rect x="6" y="13" width="2" height="3" fill="var(--armor-light)"/>
  <rect x="16" y="13" width="2" height="3" fill="var(--armor-shadow)"/>
  <rect x="7" y="16" width="10" height="3" fill="var(--visor)"/>
  <rect x="7" y="16" width="10" height="1" fill="var(--armor-light)"/>
  <rect x="9" y="16" width="1" height="3" fill="var(--armor-shadow)"/>
  <rect x="13" y="16" width="1" height="3" fill="var(--armor-shadow)"/>
  <rect x="8" y="19" width="8" height="3" fill="var(--armor)"/>
  <rect x="8" y="19" width="1" height="3" fill="var(--armor-light)"/>
  <rect x="14" y="19" width="2" height="3" fill="var(--armor-shadow)"/>
  <rect x="9" y="22" width="6" height="1" fill="var(--armor)"/>
  <rect x="9" y="23" width="6" height="1" fill="var(--armor-shadow)"/>
  <rect x="5" y="20" width="3" height="2" fill="var(--armor)"/>
  <rect x="5" y="20" width="1" height="2" fill="var(--armor-light)"/>
  <rect x="16" y="20" width="3" height="2" fill="var(--armor)"/>
  <rect x="18" y="20" width="1" height="2" fill="var(--armor-shadow)"/>
</svg>
