<svg xmlns="http://www.w3.org/2000/svg" viewBox="0 0 32 44">
  <rect x="2" y="6" width="6" height="38" fill="var(--stone)"/>
  <rect x="24" y="6" width="6" height="38" fill="var(--stone)"/>
  <rect x="0" y="0" width="32" height="8" fill="var(--stone)"/>
  <rect x="2" y="6" width="2" height="38" fill="var(--stone-light)"/>
  <rect x="24" y="6" width="2" height="38" fill="var(--stone-light)"/>
  <rect x="0" y="0" width="32" height="2" fill="var(--stone-light)"/>
  <rect x="6" y="6" width="2" height="38" fill="var(--stone-shadow)"/>
  <rect x="28" y="6" width="2" height="38" fill="var(--stone-shadow)"/>
  <rect x="0" y="6" width="32" height="2" fill="var(--stone-shadow)"/>
  <rect x="2" y="20" width="6" height="1" fill="var(--stone-shadow)"/>
  <rect x="24" y="20" width="6" height="1" fill="var(--stone-shadow)"/>
  <rect x="2" y="32" width="6" height="1" fill="var(--stone-shadow)"/>
  <rect x="24" y="32" width="6" height="1" fill="var(--stone-shadow)"/>
  <rect x="11" y="10" width="3" height="30" fill="var(--metal)"/>
  <rect x="18" y="10" width="3" height="30" fill="var(--metal)"/>
  <rect x="12" y="10" width="1" height="30" fill="var(--metal-light)"/>
  <rect x="19" y="10" width="1" height="30" fill="var(--metal-light)"/>
</svg>
