<svg xmlns="http://www.w3.org/2000/svg" viewBox="0 0 28 40">
  <rect x="10" y="0" width="8" height="2" fill="var(--cape)"/>
  <rect x="10" y="0" width="3" height="1" fill="var(--cape-light)"/>
  <polygon points="3,2 8,0 11,3 11,9 3,9" fill="var(--armor)"/>
  <polygon points="4,2 8,1 7,4 5,5 4,9 3,9 3,4" fill="var(--armor-light)"/>
  <rect x="3" y="5" width="8" height="1" fill="var(--armor-shadow)"/>
  <rect x="3" y="7" width="8" height="1" fill="var(--armor-shadow)"/>
  <polygon points="25,2 20,0 17,3 17,9 25,9" fill="var(--armor)"/>
  <polygon points="24,3 21,1 22,4 24,6 25,8 25,3" fill="var(--armor-light)"/>
  <rect x="17" y="5" width="8" height="1" fill="var(--armor-shadow)"/>
  <rect x="17" y="7" width="8" height="1" fill="var(--armor-shadow)"/>
  <polygon points="8,2 20,2 21,10 19,16 9,16 7,10" fill="var(--armor)"/>
  <polygon points="8,2 13,2 12,16 9,16 7,10" fill="var(--armor-light)"/>
  <polygon points="17,2 20,2 21,10 19,16 17,16" fill="var(--armor-shadow)"/>
  <rect x="13" y="3" width="1" height="12" fill="var(--armor-light)"/>
  <rect x="8" y="9" width="13" height="1" fill="var(--armor-shadow)"/>
  <rect x="8" y="12" width="12" height="1" fill="var(--armor-shadow)"/>
  <rect x="5" y="8" width="4" height="18" fill="var(--armor)"/>
  <rect x="5" y="8" width="1" height="18" fill="var(--armor-light)"/>
  <rect x="8" y="8" width="1" height="18" fill="var(--armor-shadow)"/>
  <rect x="5" y="17" width="4" height="2" fill="var(--armor-light)"/>
  <rect x="19" y="8" width="4" height="18" fill="var(--armor)"/>
  <rect x="19" y="8" width="1" height="18" fill="var(--armor-light)"/>
  <rect x="22" y="8" width="1" height="18" fill="var(--armor-shadow)"/>
  <rect x="19" y="17" width="4" height="2" fill="var(--armor-light)"/>
  <rect x="4" y="24" width="5" height="5" fill="var(--armor)"/>
  <rect x="4" y="24" width="5" height="1" fill="var(--armor-light)"/>
  <rect x="4" y="28" width="5" height="1" fill="var(--armor-shadow)"/>
  <rect x="19" y="24" width="5" height="5" fill="var(--armor)"/>
  <rect x="19" y="24" width="5" height="1" fill="var(--armor-light)"/>
  <rect x="19" y="28" width="5" height="1" fill="var(--armor-shadow)"/>
  <rect x="6" y="16" width="16" height="3" fill="var(--armor)"/>
  <rect x="6" y="16" width="16" height="1" fill="var(--armor-light)"/>
  <rect x="6" y="18" width="16" height="1" fill="var(--armor-shadow)"/>
  <rect x="6" y="19" width="16" height="3" fill="var(--armor)"/>
  <rect x="6" y="21" width="16" height="1" fill="var(--armor-shadow)"/>
  <rect x="6" y="22" width="16" height="3" fill="var(--armor)"/>
  <rect x="6" y="24" width="16" height="1" fill="var(--armor-shadow)"/>
  <rect x="13" y="17" width="2" height="8" fill="var(--armor-shadow)"/>
  <rect x="8" y="25" width="5" height="7" fill="var(--armor)"/>
  <rect x="8" y="25" width="1" height="7" fill="var(--armor-light)"/>
  <rect x="15" y="25" width="5" height="7" fill="var(--armor)"/>
  <rect x="19" y="25" width="1" height="7" fill="var(--armor-shadow)"/>
  <rect x="8" y="31" width="5" height="2" fill="var(--armor-light)"/>
  <rect x="15" y="31" width="5" height="2" fill="var(--armor-light)"/>
  <rect x="8" y="33" width="5" height="3" fill="var(--armor)"/>
  <rect x="12" y="33" width="1" height="3" fill="var(--armor-shadow)"/>
  <rect x="15" y="33" width="5" height="3" fill="var(--armor)"/>
  <rect x="19" y="33" width="1" height="3" fill="var(--armor-shadow)"/>
  <rect x="7" y="36" width="6" height="3" fill="var(--armor)"/>
  <rect x="7" y="36" width="2" height="1" fill="var(--armor-light)"/>
  <rect x="15" y="36" width="6" height="3" fill="var(--armor)"/>
  <rect x="15" y="36" width="2" height="1" fill="var(--armor-light)"/>
</svg>
